<svg width="24" height="24" viewBox="0 0 24 24" fill="none" xmlns="http://www.w3.org/2000/svg">
<g clip-path="url(#clip0_7922_4914)">
<path d="M3.24557 18.9442C3.17132 19.0101 3.11089 19.09 3.06777 19.1794C3.02465 19.2688 2.9997 19.3659 2.99437 19.465C2.98904 19.5641 3.00343 19.6633 3.03671 19.7568C3.06999 19.8503 3.1215 19.9362 3.18825 20.0097C3.255 20.0831 3.33566 20.1426 3.42556 20.1846C3.51546 20.2267 3.61282 20.2505 3.71198 20.2546C3.81114 20.2588 3.91014 20.2432 4.00323 20.2088C4.09633 20.1744 4.18167 20.1218 4.25432 20.0542L7.10057 17.4677C7.76702 19.0543 8.73634 20.4959 9.95432 21.7117C11.8293 23.5867 14.5912 23.7667 16.6734 22.1514C16.927 21.9532 17.1101 21.6787 17.1957 21.3684C17.2813 21.0581 17.2648 20.7285 17.1487 20.4283L15.5203 15.8345L15.5099 15.8073C15.4173 15.5756 15.2683 15.3706 15.0764 15.211C14.8846 15.0514 14.6559 14.9422 14.4112 14.8933L11.6446 14.3402C11.554 14.0773 11.4789 13.8093 11.4196 13.5377L20.7543 5.05234C20.8286 4.98648 20.889 4.90653 20.9321 4.81714C20.9752 4.72775 21.0002 4.63069 21.0055 4.53158C21.0108 4.43248 20.9965 4.3333 20.9632 4.2398C20.9299 4.1463 20.8784 4.06033 20.8116 3.98688C20.7449 3.91343 20.6642 3.85396 20.5743 3.81192C20.4844 3.76987 20.3871 3.74609 20.2879 3.74195C20.1887 3.7378 20.0897 3.75338 19.9966 3.78778C19.9036 3.82218 19.8182 3.87472 19.7456 3.94234L3.24557 18.9442ZM10.2318 14.8473C10.3189 15.0916 10.4677 15.3091 10.6639 15.4787C10.8601 15.6483 11.0969 15.7641 11.3512 15.8148L14.1168 16.368L15.7387 20.9411C15.7387 20.9505 15.7509 20.957 15.7546 20.9664C14.264 22.1223 12.359 21.9977 11.0146 20.6514C9.80747 19.4446 8.87666 17.9902 8.2865 16.3886L10.1746 14.673C10.1934 14.7311 10.2112 14.7892 10.2318 14.8473ZM16.6734 1.8489C16.927 2.04711 17.1101 2.32164 17.1957 2.63193C17.2813 2.94223 17.2648 3.27183 17.1487 3.57203L16.8412 4.43922C16.8083 4.53204 16.7574 4.61748 16.6914 4.69064C16.6255 4.76379 16.5457 4.82325 16.4568 4.8656C16.2772 4.95113 16.071 4.96182 15.8835 4.89531C15.7907 4.86238 15.7053 4.81148 15.6321 4.74553C15.559 4.67958 15.4995 4.59987 15.4572 4.51094C15.3716 4.33135 15.3609 4.12513 15.4274 3.93765L15.7387 3.05922L15.7499 3.03109C14.264 1.87797 12.359 1.99984 11.0146 3.3489C8.609 5.75453 7.33307 9.15015 7.51682 12.663C7.52192 12.7615 7.50758 12.86 7.47461 12.9529C7.44164 13.0459 7.39069 13.1314 7.32466 13.2047C7.25863 13.2779 7.17881 13.3375 7.08977 13.3799C7.00073 13.4223 6.90421 13.4468 6.80572 13.4519C6.70723 13.457 6.6087 13.4426 6.51575 13.4097C6.4228 13.3767 6.33725 13.3257 6.264 13.2597C6.19074 13.1937 6.13121 13.1139 6.08879 13.0248C6.04638 12.9358 6.02192 12.8393 6.01682 12.7408C5.8115 8.80328 7.24494 4.99422 9.95431 2.28859C11.8284 0.414528 14.5912 0.23359 16.6734 1.8489Z" fill="black"/>
</g>
<defs>
<clipPath id="clip0_7922_4914">
<rect width="24" height="24" fill="white" transform="translate(0 24.0001) rotate(-90)"/>
</clipPath>
</defs>
</svg>
