<svg width="24" height="25" viewBox="0 0 24 25" fill="none" xmlns="http://www.w3.org/2000/svg">
<path d="M21.2991 9.87508C21.6379 9.80614 21.9425 9.62227 22.1613 9.35457C22.3802 9.08687 22.4998 8.75178 22.5 8.40602V6.08008C22.5 5.68225 22.342 5.30072 22.0607 5.01942C21.7794 4.73811 21.3978 4.58008 21 4.58008H3C2.60218 4.58008 2.22065 4.73811 1.93934 5.01942C1.65804 5.30072 1.5 5.68225 1.5 6.08008V8.40602C1.50019 8.75178 1.61983 9.08687 1.83867 9.35457C2.05751 9.62227 2.36212 9.80614 2.70094 9.87508C3.20757 9.98014 3.66251 10.2566 3.98912 10.6579C4.31573 11.0592 4.49406 11.5608 4.49406 12.0782C4.49406 12.5956 4.31573 13.0972 3.98912 13.4985C3.66251 13.8998 3.20757 14.1763 2.70094 14.2813C2.36148 14.3504 2.0564 14.5348 1.83748 14.8033C1.61857 15.0718 1.49933 15.4077 1.5 15.7541V18.0801C1.5 18.4779 1.65804 18.8594 1.93934 19.1407C2.22065 19.422 2.60218 19.5801 3 19.5801H21C21.3978 19.5801 21.7794 19.422 22.0607 19.1407C22.342 18.8594 22.5 18.4779 22.5 18.0801V15.7541C22.4998 15.4084 22.3802 15.0733 22.1613 14.8056C21.9425 14.5379 21.6379 14.354 21.2991 14.2851C20.7924 14.18 20.3375 13.9035 20.0109 13.5023C19.6843 13.101 19.5059 12.5994 19.5059 12.082C19.5059 11.5645 19.6843 11.0629 20.0109 10.6617C20.3375 10.2604 20.7924 9.98389 21.2991 9.87883V9.87508ZM3 15.7551C3.84722 15.5825 4.60876 15.1224 5.15573 14.4528C5.70269 13.7832 6.00146 12.9452 6.00146 12.0805C6.00146 11.2159 5.70269 10.3779 5.15573 9.70826C4.60876 9.03865 3.84722 8.5786 3 8.40602V6.08008H8.25V18.0801H3V15.7551ZM21 15.7551V18.0801H9.75V6.08008H21V8.40508C20.1528 8.57767 19.3912 9.03771 18.8443 9.70733C18.2973 10.3769 17.9985 11.215 17.9985 12.0796C17.9985 12.9442 18.2973 13.7823 18.8443 14.4519C19.3912 15.1215 20.1528 15.5816 21 15.7541V15.7551Z" fill="black"/>
</svg>
