<svg width="21" height="19" viewBox="0 0 21 19" fill="none" xmlns="http://www.w3.org/2000/svg">
<path fill-rule="evenodd" clip-rule="evenodd" d="M9.36546 -0.00305176H1.60261V0.901709C1.59719 4.38466 2.6016 7.7945 4.49423 10.7184C4.74107 11.0998 5.00171 11.4712 5.27548 11.8319L0.892822 15.5768L1.95078 16.815L6.31722 13.0839C7.36757 14.237 8.56473 15.2533 9.88117 16.1053C12.805 17.9979 16.2149 19.0023 19.6978 18.9969H20.6026V11.2341L14.5497 9.8887L12.8669 11.5706C11.9775 10.9999 11.1651 10.3223 10.447 9.55505L19.4816 1.83506L18.4237 0.596936L9.41219 8.29714C9.27927 8.11267 9.15114 7.92446 9.02798 7.73265L10.7108 6.0498L9.36546 -0.00305176ZM8.03319 9.47547C7.69585 9.01719 7.38468 8.53809 7.10175 8.04027L6.76065 7.44042L8.72851 5.47347L7.91422 1.80647H3.43656C3.58873 4.6293 4.47742 7.36308 6.01422 9.73579C6.21729 10.0495 6.43072 10.3557 6.65406 10.6539L8.03319 9.47547ZM7.69401 11.9074C8.63029 12.9281 9.69479 13.8287 10.8637 14.5853C13.2364 16.1222 15.9702 17.0108 18.7931 17.163V12.6853L15.1261 11.871L13.1591 13.8389L12.5593 13.4978C11.2555 12.7568 10.0802 11.8221 9.07069 10.7311L7.69401 11.9074Z" fill="#000114"/>
</svg>
